<svg width="223" height="44" fill="none" xmlns="http://www.w3.org/2000/svg"><path fill-rule="evenodd" clip-rule="evenodd" d="M82.917 44c10.994 0 23.199-5.715 27.879-18.772 5.092-14.21-3.945-18.353-15.62-18.353H93.33l-3.781 10.592h2.774c5.236 0 7.605 2.884 5.894 7.656-2.067 5.768-6.23 8.18-12.04 8.18h-2.304l5.676-15.836-9.408-7.198L68.05 44h14.867zm25.556 0h26.384l3.722-10.382h-14.658l1.24-3.461h12.931l3.477-9.7h-12.931l1.146-3.2h13.769l3.721-10.382h-25.495L108.473 44zm31.695 0h26.385l3.721-10.382h-14.658l1.24-3.461h12.931l3.477-9.7h-12.93l1.146-3.2h13.768l3.722-10.382h-25.495L140.168 44zm55.804 0h15.234l-6.876-19.506L223 6.875h-14.658l-9.097 9.754-2.368-9.754h-15.025l6.193 17.776L167.865 44h14.763l10.33-10.854L195.972 44zM51.973 6.875H40.046L44.6 44h11.955L51.973 6.875zM8.736 44h11.955L0 19.25 8.736 44zm9.196-24.75h11.714L38.623 44H26.668l-8.736-24.75z" fill="#fff"/><path fill-rule="evenodd" clip-rule="evenodd" d="M65.293 19.366L56.555 44H44.6l8.77-24.634L57.83 7.05 45.897 2.783h13.652L51.775 0h32.367l-2.51 7.05-2.798-2.132-9.106 2.132-4.435 12.316zM40.003 6.875h11.954L38.623 44H26.668L40.002 6.875zM17.931 19.25h11.725L20.69 44H8.736l9.196-24.75zM69.728 2.783L67.057 1.34l5.513.808-2.842.636z" fill="#D80027"/></svg>